<svg width="401" height="400" viewBox="0 0 401 400" fill="none" xmlns="http://www.w3.org/2000/svg">
<g clip-path="url(#clip0_291_3236)">
<rect x="0.5" width="400" height="400" rx="20" fill="white"/>
<path d="M303.944 407.915C303.944 407.915 312.315 395.502 317.171 379.31C322.028 363.118 334.443 327.229 336.606 322.365C338.769 317.509 331.171 319.061 335.424 313.49C339.678 307.918 341.093 310.049 341.599 310.049C342.106 310.049 344.936 298.407 352.937 298.206C360.93 298.005 356.684 309.944 354.963 312.372C353.243 314.8 358.799 314.495 357.641 317.839C356.483 321.176 355.872 324.721 351.723 326.136C347.574 327.551 342.613 351.437 342.613 351.437L320.75 407.907H303.944V407.915Z" fill="#B31D20"/>
<path d="M339.477 314.205C339.477 314.205 339.3 319.431 346.392 320.139C353.476 320.846 354.256 318.153 354.256 318.153L339.477 314.205Z" fill="#FFFEFB"/>
<path d="M347.799 386.561C344.663 389.592 344.663 390.099 344.969 393.339C345.274 396.579 341.422 400.221 330.897 396.78C320.372 393.339 313.826 391.522 313.826 391.522C290.074 392.197 263.185 379.68 257.517 375.837C251.848 371.986 247.699 332.72 247.699 332.72C246.388 333.637 234.037 354.885 230.797 360.955C227.556 367.025 221.084 375.732 223.005 379.173C224.927 382.614 232.928 404.876 232.928 404.876H133.736C132.659 398.806 117.003 382.614 116.818 377.895C116.633 373.167 134.138 345.913 137.652 330.936C141.158 315.958 127.794 295.987 126.58 296.124C125.366 296.261 96.2177 340.382 95.5423 350.633C94.8669 360.891 107.692 378.297 113.763 385.315C119.834 392.326 127.529 404.876 127.529 404.876H91.0877C91.0877 404.876 76.9198 391.112 67.7452 380.186C58.5706 369.252 57.6218 363.994 57.0187 351.244C56.4076 338.493 65.1158 324.327 71.7897 305.297C78.4716 286.276 91.8355 261.176 107.419 239.517C123.01 217.867 176.65 232.032 176.65 232.032C176.65 232.032 202.759 236.551 209.77 233.721C216.79 230.883 237.109 237.427 237.109 237.427C266.659 237.29 272.191 255.645 274.627 267.784C277.056 279.932 280.288 306.921 281.1 317.847C281.912 328.773 285.217 354.684 285.217 354.684C291.224 355.762 310.047 363.383 310.047 363.383C312.886 352.056 315.917 348.711 322.494 344.667C329.08 340.615 348 348.912 348 348.912C348 348.912 357.11 348.51 360.351 358.021C363.591 367.532 350.935 383.522 347.799 386.561Z" fill="#B31D20"/>
<path d="M311.969 384.029C311.969 384.029 314.904 375.531 315.41 369.357C315.917 363.182 319.254 350.432 324.416 350.335C329.578 350.239 329.884 351.855 327.246 355.898C324.617 359.942 321.578 367.636 321.682 373.2C321.787 378.771 318.345 383.732 311.969 384.029Z" fill="#FFFFFB"/>
<path d="M336.566 350.327C336.566 350.327 333.188 348.679 333.188 352.723C333.188 356.767 333.928 355.553 340.272 358.391C346.617 361.221 351.409 364.799 353.025 364.397C354.641 363.995 354.038 358.801 352.961 357.579C351.883 356.357 336.566 350.327 336.566 350.327Z" fill="#FFFFFB"/>
<path d="M332.183 368.288C331.596 368.183 331.001 368.095 330.398 368.03C329.642 367.95 328.629 367.636 328.87 366.68C329.321 364.911 330.229 360.763 334.33 361.366C338.431 361.977 349.865 368.754 350.524 371.584C350.733 372.468 350.621 373.618 350.018 374.333C349.165 375.354 347.943 374.816 347.059 374.148C344.751 372.42 342.306 371.415 339.597 370.498C337.136 369.662 334.756 368.754 332.183 368.288Z" fill="#FFFFFB"/>
<path d="M328.879 378.908C328.879 378.908 325.63 378.707 326.981 376.343C328.332 373.979 328.67 372.966 331.701 373.304C334.741 373.642 345.194 377.485 345.194 380.049C345.194 382.614 344.92 384.567 341.414 383.426C337.917 382.276 332.256 378.57 328.879 378.908Z" fill="#FFFFFB"/>
<path d="M323.54 387.744C323.54 387.744 321.377 388.282 321.787 385.316C322.189 382.349 325.43 382.349 327.794 383.225C330.158 384.102 340.209 387.88 340.008 389.368C339.807 390.855 339.131 393.749 334.403 391.86C329.683 389.971 323.54 387.744 323.54 387.744Z" fill="#FFFFFB"/>
<path d="M166.125 237.298C166.125 237.298 177.262 234.669 184.241 245.193C191.22 255.717 206.506 272.817 219.966 270.293C233.427 267.76 236.563 261.538 236.362 256.754C236.161 251.971 232.011 244.992 235.147 244.381C238.283 243.77 243.647 250.25 242.842 257.534C242.03 264.818 237.576 280.608 216.227 277.062C194.871 273.517 192.041 263.202 187.988 258.949C183.935 254.704 173.917 240.538 166.125 237.298Z" fill="#FFFCFF"/>
<path d="M118.338 263.524C118.66 263.693 119.006 263.829 119.376 263.934C121.434 264.512 126.387 264.786 127.754 262.623C127.947 262.318 128.212 260.372 127.593 260.372C124.763 255.243 123.074 254.23 125.503 253.555C127.931 252.879 136.092 258.209 134.613 263.475C133.125 268.741 128.944 274.273 119.834 272.247C110.724 270.221 104.991 261.184 108.528 251.167C112.066 241.15 123.71 235.586 132.619 236.294C141.528 237.001 154.578 244.494 161.164 264.73C167.741 284.965 173.611 298.022 186.163 302.877C198.714 307.733 212.577 316.239 215.311 333.138C218.044 350.038 207.615 369.268 202.252 368.858C196.889 368.456 205.493 360.562 207.519 349.025C209.545 337.488 207.519 324.126 200.837 318.667C194.155 313.2 186.163 310.37 179.376 307.741C172.59 305.113 166.728 299.34 163.077 289.725C159.435 280.109 153.967 266.651 150.936 258.861C149.111 254.166 144.897 250.146 140.933 247.211C136.551 243.979 129.981 240.603 124.61 243.417C123.026 244.245 121.675 245.459 120.469 246.777C117.116 250.427 111.705 260.075 118.338 263.524Z" fill="#FFFCFF"/>
<path d="M166.792 254.294C166.792 254.294 162.474 252.807 162.072 250.25C161.67 247.685 166.663 247.822 169.019 249.309C171.383 250.797 180.357 256.055 180.421 268.604C180.421 268.604 185.278 264.287 188.116 264.962C190.946 265.638 188.317 268.942 186.765 271.78C185.213 274.61 180.493 279.675 182.849 284.667C185.213 289.66 192.024 293.238 193.576 291.212C195.128 289.186 190.946 284.603 193.101 282.778C195.264 280.953 201.6 283.18 201.6 288.985C201.6 294.789 199.309 301.969 188.984 297.82C178.66 293.672 172.991 284.161 174.406 271.41C175.838 258.651 166.792 254.294 166.792 254.294Z" fill="#FFFCFF"/>
<path d="M226.953 331.812C226.953 331.812 235.356 316.529 234.544 301.149C233.732 285.769 224.324 279.997 221.18 280.503C218.036 281.01 210.148 286.678 211.869 297.507C213.589 308.336 224.115 321.698 226.953 331.812Z" fill="#FFFCFF"/>
<path d="M225.635 315.829C225.522 315.685 226.471 313.675 226.544 313.466C227.219 311.544 227.782 309.575 228.176 307.581C229.406 301.39 228.007 293.994 224.63 288.648C224.244 288.037 223.81 287.442 223.223 287.024C222.37 286.421 221.406 286.364 220.569 286.983C217.433 289.315 215.415 303.175 225.635 315.829Z" fill="#B31D20"/>
<path d="M239.907 287.594C239.907 287.594 241.427 287.039 241.017 285.319C240.607 283.598 238.484 279.852 241.523 278.992C244.563 278.132 247.345 278.743 246.79 284.306C246.235 289.869 242.995 295.537 240.366 294.323C237.728 293.109 239.907 287.594 239.907 287.594Z" fill="#FFFCFF"/>
<path d="M251.599 290.73C251.599 290.73 253.271 284.523 251.599 279.53C249.926 274.538 244.66 265.895 249.114 262.117C253.569 258.346 253.432 268.299 255.861 273.646C258.289 278.992 259.503 304.091 244.523 305.169C244.523 305.169 243.309 304.429 247.289 299.364C251.269 294.299 251.599 290.73 251.599 290.73Z" fill="#FFFCFF"/>
<path d="M154.787 299.043C154.787 299.043 152.085 310.563 163.286 314.471C174.487 318.386 181.828 313.932 181.828 313.932C181.828 313.932 182.922 312.179 177.792 311.978C172.662 311.777 164.5 309.277 159.644 301.181C155.02 293.479 154.787 299.043 154.787 299.043Z" fill="#FFFCFF"/>
<path d="M181.925 332.319C181.925 332.319 182.11 324.834 188.487 327.969C194.863 331.105 196.688 348.414 191.421 356.807C186.155 365.209 187.473 373.2 190.207 371.584C192.941 369.968 199.623 360.152 201.038 348.205C202.453 336.258 199.422 324.729 191.928 321.385C184.434 318.04 176.747 320.677 175.227 326.747C173.708 332.817 175.935 342.03 182.713 341.62C189.492 341.21 181.419 334.843 181.925 332.319Z" fill="#FFFCFF"/>
<path d="M211.941 371.118C211.941 371.005 211.957 370.893 211.99 370.78C212.07 370.515 212.223 370.274 212.384 370.048C214.86 366.39 217.393 362.805 218.889 358.6C220.915 352.932 225.37 343.22 231.577 331.82C237.785 320.42 245.287 309.76 250.851 307.195C256.407 304.63 255.844 303.489 257.34 306.15C258.835 308.811 253.577 311.593 249.227 316.087C244.877 320.581 235.059 344.563 227.975 353.374C225.506 356.445 223.504 359.862 221.494 363.239C219.87 365.964 218.318 369.011 216.05 371.27C215.383 371.938 214.466 372.726 213.437 372.581C212.713 372.476 211.941 371.881 211.941 371.118Z" fill="#FFFCFF"/>
<path d="M162.048 329.288C162.048 329.288 162.072 324.834 165.313 324.938C168.553 325.043 166.527 334.28 169.566 338.613C172.606 342.947 176.851 342.545 181.21 348.309C185.56 354.074 185.865 371.889 181.21 370.981C176.554 370.072 182.93 356.711 175.742 351.855C168.553 346.991 161.421 346.991 162.048 329.288Z" fill="#FFFCFF"/>
<path d="M152.101 353.647C151.394 352.393 154.305 349.644 155.149 349.025C158.735 346.404 162.554 349.965 165.095 352.369C168.239 355.328 171.399 358.857 173.289 362.78C175.693 367.773 179.488 391.876 151.812 390.847C151.812 390.847 137.443 388.756 137.033 376.48C136.623 364.203 148.435 358.672 155.993 363.19C163.551 367.709 160.046 382.084 153.227 376.753C153.227 376.753 154.506 369.751 151.201 368.866C147.896 367.982 143.843 370.82 144.656 376.89C145.468 382.96 150.662 387.076 158.823 384.584C164.854 382.743 170.507 377.316 168.931 370.531C168.223 367.484 166.454 364.63 164.476 362.242C161.388 358.503 157.038 356.389 152.817 354.226C152.552 354.082 152.254 353.921 152.101 353.647Z" fill="#FFFCFF"/>
<path d="M135.553 391.924C135.553 391.924 145.17 396.273 154.578 395.566C163.994 394.858 174.294 387.269 184.578 380.99C194.862 374.711 214.394 373.296 217.94 386.658C221.486 400.02 213.59 405.985 206.401 404.876C199.213 403.766 199.414 392.294 204.479 390.694C209.537 389.094 202.558 395.67 206.707 396.981C210.856 398.299 213.694 394.416 213.188 390.694C212.681 386.972 205.396 377.453 190.617 385.444C175.838 393.435 167.741 406.09 152.463 402.142C137.178 398.203 134.645 394.255 135.553 391.924Z" fill="#FFFCFF"/>
<path d="M190.914 405.013C190.914 405.013 183.259 397.528 194.589 388.081C194.589 388.081 198.633 385.38 197.966 391.458C197.29 397.528 191.501 399.61 198.038 405.013" fill="#FFFCFF"/>
<path d="M169.02 405.012C169.02 405.012 176.039 396.45 179.746 397.801C183.461 399.151 177.921 405.012 177.921 405.012H169.02Z" fill="#FFFCFF"/>
<path d="M98.7188 264.818C97.9308 264.914 97.561 266.249 97.368 266.852C97.0785 267.785 97.0303 268.79 97.2152 269.746C97.4564 270.96 98.0193 272.102 98.7108 273.123C102.353 278.517 110.523 288.302 106.607 292.482C102.691 296.663 98.9118 297.949 95.8081 293.97C92.7043 289.99 98.0997 288.776 99.1852 290.464C99.1852 290.464 103.029 291.743 101.815 287.835C100.6 283.92 93.1787 280.752 89.4639 285.343C85.749 289.934 87.0355 294.38 88.8528 297.418C90.67 300.457 92.7686 304.437 100.866 303.488C104.267 303.094 107.668 301.358 110.201 299.043C111.777 297.603 113.184 295.674 113.562 293.543C114.004 291.059 113.771 288.495 113.184 286.059C111.198 277.85 106.366 270.068 99.4666 265.115C99.2495 264.963 99.0083 264.802 98.743 264.818C98.743 264.818 98.7269 264.818 98.7188 264.818Z" fill="#FFFCFF"/>
<path d="M90.316 314.446C90.316 314.446 79.3886 309.791 82.7255 304.606C86.0624 299.42 103.575 316.424 102.466 317.437C101.356 318.45 81.9214 322.888 80.3695 328.958C78.8177 335.028 80.0318 336.917 80.8439 337.592C81.6561 338.268 86.9148 330.574 89.2788 331.112C91.6428 331.651 95.2129 335.156 90.2195 340.358C85.2262 345.56 79.2921 345.889 76.4537 342.987C73.6153 340.085 70.7206 329.223 78.0055 321.264C85.2825 313.297 90.316 314.446 90.316 314.446Z" fill="#FFFCFF"/>
<path d="M222.499 262.004C207.824 262.905 202.662 258.491 196.286 251.826C189.909 245.169 182.857 238.472 182.857 238.472C182.857 238.472 182.865 238.472 182.89 238.464C183.565 238.368 196.133 236.663 205.315 242.733C214.763 248.98 221.164 242.733 221.164 242.733C220.971 244.462 220.931 246.271 221.083 248.136C221.083 248.136 224.123 245.893 226.752 244.719C229.382 243.537 237.173 261.104 222.499 262.004Z" fill="#FFFCFF"/>
<path d="M316.347 220.267C312.18 222.839 299.835 219.507 298.306 219.432C296.776 219.366 296.296 227.204 289.492 230.33C288.566 230.76 287.59 231.057 286.589 231.256C280.454 232.521 273.608 230.049 273.277 229.925L276.378 232.761L285.266 233.885L286.234 234.009C286.234 234.009 290.186 234.629 287.549 237.126C284.911 239.623 285.192 238.449 283.456 245.18C281.719 251.91 275.725 252.604 267.291 251.869C259.197 251.166 245.645 244.907 236.012 244.593H235.979C232.862 244.163 230.861 245.155 228 246.064C229.439 244.378 231.159 240.996 222.287 240.682C221.245 240.649 220.203 240.5 219.178 240.252C212.828 238.763 206.924 233.728 203.204 229.908C200.665 227.32 199.136 225.286 199.136 225.286C203.931 221.243 207.644 216.356 205.469 213.735C204.593 212.677 203.543 211.569 202.683 209.891C202.683 209.891 202.683 209.891 202.675 209.882C202.046 209.535 173.893 193.47 198.077 145.985C222.527 97.9711 282.075 127.472 288.102 134.368C295.809 141.652 300.869 172.253 301.15 178.322C301.431 184.391 317.182 208.336 318.563 211.04C319.952 213.744 320.506 217.704 316.347 220.267Z" fill="#B31D20"/>
<path d="M312.354 214.297C310.692 217.109 296.917 216.522 291.369 212.082C285.821 207.641 286.581 203.962 286.581 203.962C286.581 203.962 281.24 202.507 281.306 209.725C281.381 216.935 291.509 218.465 291.303 219.994C291.088 221.516 291.435 227.899 268.267 225.815C270.533 226.973 272.286 228.329 273.584 229.552C277.156 230.553 280.322 230.875 281.538 230.966C281.877 230.991 282.067 230.999 282.067 230.999L286.59 231.256L289.839 231.438C289.831 231.446 289.831 231.446 289.823 231.446C288.508 232.587 286.92 233.348 285.267 233.885C284.936 234.001 284.589 234.1 284.25 234.191C283.886 234.282 283.522 234.365 283.158 234.431L283.316 234.439L281.124 234.976C281.1 234.976 278.809 235.15 277.28 236.275C277.834 240.376 277.28 246.858 268.127 246.354C254.806 245.626 235.55 232.62 230.035 232.719C228.646 232.744 226.645 233.612 224.445 235.241C222.742 236.481 220.923 238.176 219.178 240.252C212.828 238.763 206.925 233.728 203.204 229.908C203.576 229.635 203.932 229.371 204.279 229.106C204.783 228.717 205.279 228.32 205.767 227.907C206.735 227.088 207.652 226.212 208.488 225.269C210.29 223.244 210.687 221.094 213.763 220.656C215.383 220.424 217.029 220.648 218.649 220.532C218.914 220.515 219.195 220.482 219.41 220.317C220.311 219.647 218.55 218.01 218.12 217.53C215.201 214.297 211.191 213.413 211.456 206.443C211.712 199.472 211.092 193.594 215.251 190.625C219.418 187.657 222.957 182.87 221.502 175.445C220.038 168.02 218.17 162.753 220.873 161.223C223.577 159.694 232.945 158.652 237.112 162.885C241.271 167.119 244.744 145.125 255.567 144.778C266.39 144.43 275.618 149.292 275.618 149.292L281.736 152.401C281.736 152.401 296.33 163.199 295.809 173.708C295.288 184.226 293.312 182.663 300.704 194.528C308.087 206.393 314.024 211.495 312.354 214.297Z" fill="#FFFCFF"/>
<path d="M252.499 183.639C252.499 183.639 260.412 182.804 271.028 179.132C281.645 175.453 289.624 185.449 288.929 188.5C288.235 191.551 285.25 197.455 272.831 194.536C260.412 191.618 258.535 184.747 252.499 183.639Z" fill="#B31D20"/>
<path d="M269.573 183.912C269.573 183.912 264.215 185.524 261.925 186.094C261.925 186.094 267.597 190.882 270.458 190.204C270.458 190.204 269.102 189.178 269.16 187.087C269.209 185.003 269.573 183.912 269.573 183.912Z" fill="#FEFCFA"/>
<path d="M221.766 192.031C221.766 192.031 227.628 189.328 227.529 182.142C227.43 174.957 226.074 169.029 229.505 172.254C232.936 175.478 234.706 184.739 228.777 192.031C222.849 199.316 220.344 203.169 226.694 210.346C226.694 210.346 227.355 213.57 221.766 211.908C216.177 210.246 214.258 200.771 216.962 197.34C219.666 193.908 221.766 192.031 221.766 192.031Z" fill="#B31D20"/>
<path d="M228.001 246.065C225.115 246.982 221.353 247.817 214.664 247.007C213.308 246.842 211.828 246.61 210.216 246.304C199.789 244.295 196.556 238.193 195.647 233.596C195.035 230.479 195.481 228.056 195.481 228.056C196.722 227.213 197.962 226.279 199.136 225.286C199.136 225.286 200.666 227.32 203.204 229.908C206.925 233.728 212.828 238.764 219.178 240.252C220.204 240.5 221.245 240.649 222.287 240.682C231.159 240.996 229.439 244.378 228.001 246.065Z" fill="#B31D20"/>
<path d="M283.132 141.053C283.132 141.053 292.652 117.786 256.13 100.244C219.609 82.7012 226.106 62.3128 220.55 64.2503C214.994 66.1879 196.838 104.263 198.237 106.072C199.636 107.881 189.496 99.4396 187.912 99.0296C186.328 98.6196 190.726 112.046 185.645 116.693C180.563 121.339 170.689 144.156 171.581 154.68C172.474 165.203 184.455 172.045 178.127 186.332C171.798 200.618 151.913 231.53 130.943 218.426C130.943 218.426 121.527 210.683 127.775 204.959C134.023 199.235 127.405 211.037 136.813 212.444C146.221 213.859 159.705 207.427 157.952 197.201C156.207 186.975 152.179 181.765 136.917 179.803C136.917 179.803 140.608 171.708 153.996 164.448C167.376 157.188 167.995 131.759 163.348 125.038C158.7 118.317 158.941 106.924 141.082 101.361C141.082 101.361 150.088 126.597 133.259 141.575C116.437 156.553 105.357 164.93 98.6832 185.085C92.0094 205.249 85.5606 234.818 105.438 251.661C105.438 251.661 160.348 281.77 193.71 246.066C227.071 210.362 229.861 210.917 229.861 210.917C229.861 210.917 220.92 201.092 227.787 190.552C234.653 180.004 244.552 188.727 241.536 193.953C238.521 199.179 237.178 200.843 231.091 198.222C231.091 198.222 234.018 204.823 241.368 203.215C248.717 201.607 248.62 183.333 240.379 177.576C240.379 177.576 239.398 151.062 272.928 145.297C272.92 145.322 276.015 145.587 283.132 141.053Z" fill="#B31D20"/>
<path d="M226.01 157.936C226.01 157.936 226.259 152.525 219.609 145.547C212.951 138.568 202.145 128.205 208.167 109.899C214.19 91.593 219.432 83.3926 219.432 83.3926C219.432 83.3926 238.272 103.564 241.102 113.316C243.933 123.068 242.051 141.696 231.719 147.412C231.719 147.412 234.589 138.6 234.895 128.229C235.2 117.858 229.033 103.194 218.95 95.0661C218.95 95.0661 214.326 114.369 215.098 121.098C215.862 127.827 223.774 140.168 226.613 146.656C229.443 153.136 226.01 157.936 226.01 157.936Z" fill="#FEFEFC"/>
<path d="M229.58 139.38C229.58 139.38 233.52 128.559 231.389 125.327C229.25 122.095 224.989 116.958 224.989 116.958C224.989 116.958 221.145 121.669 222.158 125.673C223.172 129.684 223.879 136.1 229.58 139.38Z" fill="#FEFEFC"/>
<path d="M233.214 165.388C233.214 165.388 230.705 155.275 244.27 147.082C257.843 138.898 264.782 135.706 266.857 131.212C268.931 126.718 269.864 118.405 269.864 118.405C269.864 118.405 275.573 123.759 273.997 128.591C272.421 133.423 271.135 139.244 259.467 144.276C247.8 149.301 235.072 165.766 233.214 165.388Z" fill="#FEFEFC"/>
<path d="M191.354 150.491C191.354 150.491 190.236 138.785 195.623 136.076C195.623 136.076 198.341 144.59 204.131 149.277C209.92 153.964 211.335 157.823 211.335 157.823C211.335 157.823 214.439 150.604 211.544 144.518C208.649 138.432 197.65 130.352 194.675 119.362C194.675 119.362 193.364 125.046 191.563 128.487C189.762 131.928 181.914 141.125 183.401 146.487C184.889 151.85 189.649 161.98 195.985 163.748C202.321 165.517 201.3 158.169 201.3 158.169C201.3 158.169 195.479 158.909 191.354 150.491Z" fill="#FEFEFC"/>
<path d="M100.862 220.693C100.862 220.693 97.0107 195.095 110.793 179.932C124.575 164.769 136.009 155.218 141.468 152.445C146.928 149.671 148.649 144.188 148.89 140.747C149.131 137.306 157.164 141.471 153.594 148.626C150.024 155.781 139.354 162.574 131.2 167.245C123.047 171.916 109.747 191.22 108.34 200.634C106.925 210.04 104.087 219.471 108.139 229.174C112.2 238.878 117.571 246.299 113.599 247.014C109.627 247.73 102.663 238.476 100.862 220.693Z" fill="#FEFEFC"/>
<path d="M149.412 232.029C149.412 232.029 150.056 229.118 153.079 231C156.102 232.881 166.258 261.196 141.677 256.196C141.677 256.196 130.846 254.749 135.22 241.869C139.594 228.99 149.002 238.364 145.448 241.716C141.886 245.069 141.363 249.217 145.665 249.089C149.951 248.968 156.392 245.439 149.412 232.029Z" fill="#FEFEFC"/>
<path d="M162.149 232.439C162.149 232.439 174.122 235.638 183.924 230.284C193.726 224.93 197.617 222.164 200.15 222.63C202.675 223.089 195.712 228.588 194.063 230.831C192.415 233.074 179.349 243.638 162.149 232.439Z" fill="#FEFEFC"/>
<path d="M111.106 209.284C111.106 209.284 117.659 183.807 135.695 185.238C153.722 186.669 149.155 204.38 144.411 202.137C139.667 199.894 142.28 194.379 137.56 194.049C132.84 193.712 125.555 195.36 121.197 202.829C116.839 210.297 115.303 219.077 116.903 224.584C118.504 230.091 125.547 236.716 123.465 239.168C121.382 241.62 118.898 244.024 117.82 240.751C116.735 237.487 108.075 228.628 111.106 209.284Z" fill="#FEFEFC"/>
<path d="M204.428 189.306C204.428 189.306 196.114 177.528 205.377 167.39C214.64 157.252 224.522 170.051 223.798 176.491C223.074 182.931 216.851 186.107 214.004 183.598C211.166 181.09 216.513 179.144 216.73 177.48C216.947 175.816 211.415 170.413 208.874 175.084C206.333 179.755 208.955 187.136 212.428 189.515C215.902 191.895 224.08 196.518 222.126 205.353C220.172 214.189 214.061 222.068 205.288 219.616C196.524 217.163 191.434 209.944 195.559 202.724C199.684 195.497 207.387 197.748 207.387 197.748C207.387 197.748 209.887 195.521 204.428 189.306Z" fill="#FEFEFC"/>
<path d="M206.841 203.777C207.042 203.906 207.227 204.067 207.387 204.236C208.184 205.08 209.173 206.085 210.121 204.823C210.757 203.97 210.942 202.829 211.207 201.824C211.585 200.385 212.099 198.158 213.917 198.005C216.803 197.764 219.867 211.013 210.564 211.93C201.26 212.846 199.676 211.962 199.7 209.108C199.717 207.596 199.692 205.868 200.585 204.573C201.55 203.174 203.592 202.925 205.152 203.158C205.755 203.239 206.342 203.44 206.841 203.777Z" fill="#B31D20"/>
</g>
<defs>
<clipPath id="clip0_291_3236">
<rect x="0.5" width="400" height="400" rx="20" fill="white"/>
</clipPath>
</defs>
</svg>
