<svg width="401" height="400" viewBox="0 0 401 400" fill="none" xmlns="http://www.w3.org/2000/svg">
<g clip-path="url(#clip0_291_3286)">
<rect x="0.5" width="400" height="400" rx="20" fill="white"/>
<path d="M294.784 403.137C294.784 403.137 303.155 390.724 308.011 374.532C312.868 358.34 325.283 322.452 327.446 317.588C329.609 312.732 322.01 314.283 326.264 308.712C330.518 303.14 331.933 305.271 332.439 305.271C332.946 305.271 335.776 293.63 343.777 293.429C351.769 293.228 347.524 305.166 345.803 307.594C344.082 310.022 349.639 309.717 348.481 313.061C347.323 316.398 346.712 319.943 342.563 321.358C338.414 322.773 333.452 346.659 333.452 346.659L311.589 403.129H294.784V403.137Z" fill="#B31D20"/>
<path d="M330.317 309.427C330.317 309.427 330.14 314.653 337.232 315.361C344.316 316.068 345.096 313.375 345.096 313.375L330.317 309.427Z" fill="#FFFEFB"/>
<path d="M338.639 381.784C335.503 384.815 335.503 385.321 335.808 388.561C336.114 391.801 332.262 395.443 321.737 392.002C311.211 388.561 304.666 386.744 304.666 386.744C280.914 387.419 254.025 374.902 248.356 371.059C242.688 367.208 238.539 327.942 238.539 327.942C237.228 328.859 224.877 350.108 221.637 356.178C218.396 362.247 211.923 370.954 213.845 374.395C215.767 377.836 223.768 400.098 223.768 400.098H124.576C123.499 394.028 107.843 377.836 107.658 373.117C107.473 368.39 124.978 341.135 128.492 326.158C131.998 311.18 118.634 291.21 117.42 291.346C116.206 291.483 87.0576 335.604 86.3821 345.855C85.7067 356.113 98.5318 373.519 104.603 380.538C110.673 387.548 118.369 400.098 118.369 400.098H81.9275C81.9275 400.098 67.7596 386.334 58.585 375.408C49.4105 364.474 48.4617 359.216 47.8586 346.466C47.2475 333.715 55.9557 319.549 62.6296 300.519C69.3115 281.498 82.6753 256.398 98.2584 234.739C113.85 213.089 167.49 227.255 167.49 227.255C167.49 227.255 193.598 231.773 200.61 228.943C207.63 226.105 227.949 232.649 227.949 232.649C257.499 232.512 263.031 250.867 265.467 263.007C267.896 275.154 271.128 302.143 271.94 313.069C272.752 323.995 276.057 349.907 276.057 349.907C282.064 350.984 300.887 358.605 300.887 358.605C303.725 347.278 306.757 343.933 313.334 339.889C319.92 335.837 338.84 344.134 338.84 344.134C338.84 344.134 347.95 343.732 351.19 353.243C354.431 362.754 341.775 378.745 338.639 381.784Z" fill="#B31D20"/>
<path d="M302.809 379.251C302.809 379.251 305.743 370.753 306.25 364.579C306.757 358.404 310.094 345.654 315.256 345.557C320.418 345.461 320.724 347.077 318.086 351.121C315.457 355.165 312.417 362.858 312.522 368.422C312.626 373.993 309.185 378.954 302.809 379.251Z" fill="#FFFFFB"/>
<path d="M327.405 345.549C327.405 345.549 324.028 343.901 324.028 347.945C324.028 351.989 324.768 350.775 331.112 353.613C337.456 356.443 342.249 360.021 343.865 359.619C345.481 359.217 344.878 354.023 343.801 352.801C342.723 351.579 327.405 345.549 327.405 345.549Z" fill="#FFFFFB"/>
<path d="M323.023 363.51C322.436 363.405 321.841 363.317 321.238 363.253C320.482 363.172 319.469 362.859 319.71 361.902C320.16 360.133 321.069 355.985 325.17 356.588C329.271 357.199 340.705 363.976 341.364 366.806C341.573 367.69 341.46 368.84 340.857 369.556C340.005 370.577 338.783 370.038 337.898 369.371C335.591 367.642 333.146 366.637 330.437 365.721C327.976 364.885 325.596 363.976 323.023 363.51Z" fill="#FFFFFB"/>
<path d="M319.719 374.13C319.719 374.13 316.47 373.929 317.821 371.565C319.172 369.202 319.51 368.189 322.541 368.526C325.58 368.864 336.033 372.707 336.033 375.271C336.033 377.836 335.76 379.79 332.254 378.648C328.756 377.498 323.096 373.792 319.719 374.13Z" fill="#FFFFFB"/>
<path d="M314.38 382.966C314.38 382.966 312.217 383.504 312.627 380.538C313.029 377.571 316.269 377.571 318.633 378.447C320.997 379.324 331.048 383.102 330.847 384.59C330.646 386.077 329.971 388.971 325.243 387.082C320.523 385.193 314.38 382.966 314.38 382.966Z" fill="#FFFFFB"/>
<path d="M156.965 232.521C156.965 232.521 168.101 229.892 175.081 240.415C182.06 250.939 197.346 268.039 210.806 265.515C224.266 262.983 227.402 256.76 227.201 251.976C227 247.193 222.851 240.214 225.987 239.603C229.123 238.992 234.486 245.472 233.682 252.756C232.87 260.04 228.416 275.83 207.067 272.284C185.711 268.739 182.88 258.424 178.828 254.171C174.775 249.926 164.756 235.761 156.965 232.521Z" fill="#FFFCFF"/>
<path d="M109.178 258.746C109.5 258.915 109.846 259.051 110.215 259.156C112.274 259.735 117.227 260.008 118.594 257.845C118.787 257.54 119.052 255.594 118.433 255.594C115.603 250.465 113.914 249.452 116.343 248.777C118.771 248.101 126.932 253.432 125.453 258.698C123.965 263.964 119.784 269.495 110.674 267.469C101.563 265.443 95.8304 256.406 99.3683 246.389C102.906 236.372 114.549 230.808 123.459 231.516C132.368 232.223 145.418 239.716 152.004 259.952C158.581 280.187 164.451 293.244 177.002 298.1C189.554 302.956 203.417 311.461 206.15 328.361C208.884 345.26 198.455 364.491 193.092 364.081C187.729 363.679 196.333 355.784 198.359 344.247C200.385 332.71 198.359 319.348 191.677 313.889C184.995 308.422 177.002 305.593 170.216 302.964C163.43 300.335 157.568 294.562 153.917 284.947C150.275 275.332 144.807 261.873 141.776 254.083C139.95 249.388 135.737 245.368 131.773 242.433C127.391 239.202 120.821 235.825 115.45 238.639C113.866 239.467 112.515 240.681 111.309 241.999C107.956 245.649 102.544 255.297 109.178 258.746Z" fill="#FFFCFF"/>
<path d="M157.632 249.516C157.632 249.516 153.314 248.029 152.912 245.472C152.51 242.908 157.503 243.044 159.859 244.532C162.223 246.019 171.196 251.277 171.261 263.827C171.261 263.827 176.117 259.509 178.956 260.185C181.786 260.86 179.157 264.164 177.605 267.002C176.053 269.832 171.333 274.897 173.689 279.89C176.053 284.882 182.864 288.46 184.415 286.434C185.967 284.408 181.786 279.825 183.941 278C186.104 276.175 192.44 278.402 192.44 284.207C192.44 290.012 190.149 297.191 179.824 293.042C169.5 288.894 163.831 279.383 165.246 266.632C166.677 253.874 157.632 249.516 157.632 249.516Z" fill="#FFFCFF"/>
<path d="M217.793 327.034C217.793 327.034 226.196 311.751 225.384 296.371C224.571 280.991 215.164 275.219 212.02 275.725C208.876 276.232 200.988 281.9 202.708 292.729C204.429 303.558 214.955 316.92 217.793 327.034Z" fill="#FFFCFF"/>
<path d="M216.475 311.052C216.362 310.907 217.311 308.897 217.384 308.688C218.059 306.766 218.622 304.797 219.016 302.803C220.246 296.612 218.847 289.216 215.47 283.87C215.084 283.259 214.65 282.664 214.063 282.246C213.21 281.643 212.245 281.586 211.409 282.205C208.273 284.537 206.255 298.397 216.475 311.052Z" fill="#B31D20"/>
<path d="M230.747 282.816C230.747 282.816 232.267 282.262 231.857 280.541C231.447 278.821 229.324 275.074 232.363 274.214C235.403 273.354 238.185 273.965 237.63 279.528C237.075 285.092 233.835 290.759 231.205 289.545C228.568 288.331 230.747 282.816 230.747 282.816Z" fill="#FFFCFF"/>
<path d="M242.439 285.952C242.439 285.952 244.111 279.745 242.439 274.753C240.766 269.76 235.499 261.118 239.954 257.339C244.409 253.568 244.272 263.521 246.7 268.868C249.129 274.214 250.343 299.314 235.363 300.391C235.363 300.391 234.149 299.651 238.129 294.586C242.109 289.521 242.439 285.952 242.439 285.952Z" fill="#FFFCFF"/>
<path d="M145.627 294.265C145.627 294.265 142.925 305.786 154.126 309.693C165.327 313.608 172.668 309.154 172.668 309.154C172.668 309.154 173.762 307.402 168.632 307.201C163.502 307 155.34 304.499 150.484 296.403C145.86 288.701 145.627 294.265 145.627 294.265Z" fill="#FFFCFF"/>
<path d="M172.765 327.541C172.765 327.541 172.95 320.056 179.326 323.191C185.703 326.327 187.528 343.636 182.261 352.029C176.995 360.431 178.313 368.422 181.047 366.806C183.781 365.19 190.463 355.374 191.878 343.427C193.293 331.48 190.262 319.951 182.768 316.607C175.274 313.262 167.587 315.899 166.067 321.969C164.547 328.039 166.775 337.253 173.553 336.843C180.332 336.433 172.259 330.065 172.765 327.541Z" fill="#FFFCFF"/>
<path d="M202.781 366.34C202.781 366.227 202.797 366.115 202.829 366.002C202.91 365.737 203.063 365.496 203.224 365.271C205.7 361.613 208.233 358.027 209.729 353.822C211.755 348.154 216.209 338.442 222.417 327.042C228.624 315.642 236.127 304.982 241.691 302.417C247.247 299.852 246.684 298.711 248.18 301.372C249.675 304.033 244.417 306.815 240.067 311.309C235.716 315.803 225.899 339.785 218.815 348.596C216.346 351.668 214.344 355.084 212.334 358.461C210.71 361.186 209.158 364.233 206.89 366.493C206.223 367.16 205.306 367.948 204.277 367.803C203.553 367.699 202.781 367.104 202.781 366.34Z" fill="#FFFCFF"/>
<path d="M152.888 324.51C152.888 324.51 152.912 320.056 156.153 320.16C159.393 320.265 157.367 329.502 160.406 333.836C163.446 338.169 167.691 337.767 172.049 343.531C176.399 349.296 176.705 367.111 172.049 366.203C167.394 365.295 173.77 351.933 166.582 347.077C159.393 342.213 152.261 342.213 152.888 324.51Z" fill="#FFFCFF"/>
<path d="M142.941 348.87C142.234 347.615 145.144 344.866 145.989 344.247C149.575 341.626 153.394 345.187 155.935 347.591C159.079 350.55 162.239 354.079 164.129 358.003C166.533 362.995 170.328 387.098 142.652 386.069C142.652 386.069 128.283 383.979 127.873 371.702C127.463 359.426 139.275 353.894 146.833 358.413C154.391 362.931 150.886 377.306 144.067 371.975C144.067 371.975 145.345 364.973 142.041 364.089C138.736 363.204 134.683 366.042 135.495 372.112C136.308 378.182 141.502 382.298 149.663 379.806C155.694 377.965 161.347 372.538 159.771 365.753C159.063 362.706 157.294 359.852 155.316 357.464C152.228 353.726 147.878 351.611 143.657 349.448C143.391 349.304 143.094 349.143 142.941 348.87Z" fill="#FFFCFF"/>
<path d="M126.393 387.146C126.393 387.146 136.01 391.496 145.418 390.788C154.834 390.081 165.134 382.491 175.418 376.212C185.702 369.933 205.233 368.518 208.779 381.88C212.325 395.242 204.429 401.207 197.241 400.098C190.052 398.988 190.253 387.516 195.319 385.916C200.377 384.316 193.397 390.893 197.546 392.203C201.696 393.522 204.534 389.638 204.027 385.916C203.521 382.194 196.236 372.675 181.457 380.666C166.678 388.658 158.581 401.312 143.303 397.364C128.017 393.425 125.485 389.478 126.393 387.146Z" fill="#FFFCFF"/>
<path d="M181.754 400.235C181.754 400.235 174.099 392.75 185.429 383.303C185.429 383.303 189.473 380.602 188.806 386.68C188.13 392.75 182.341 394.832 188.878 400.235" fill="#FFFCFF"/>
<path d="M159.859 400.235C159.859 400.235 166.879 391.672 170.586 393.023C174.301 394.374 168.761 400.235 168.761 400.235H159.859Z" fill="#FFFCFF"/>
<path d="M89.5587 260.04C88.7707 260.137 88.4008 261.471 88.2078 262.074C87.9184 263.007 87.8701 264.012 88.0551 264.968C88.2963 266.182 88.8591 267.324 89.5506 268.345C93.1931 273.74 101.363 283.524 97.4467 287.704C93.5309 291.885 89.7517 293.171 86.6479 289.192C83.5442 285.212 88.9395 283.998 90.0251 285.686C90.0251 285.686 93.8686 286.965 92.6544 283.058C91.4402 279.142 84.0186 275.975 80.3037 280.565C76.5888 285.156 77.8754 289.602 79.6926 292.641C81.5098 295.68 83.6085 299.659 91.7056 298.711C95.1069 298.317 98.5081 296.58 101.041 294.265C102.617 292.826 104.024 290.896 104.402 288.766C104.844 286.281 104.611 283.717 104.024 281.281C102.038 273.072 97.2055 265.29 90.3065 260.338C90.0894 260.185 89.8482 260.024 89.5828 260.04C89.5828 260.04 89.5667 260.04 89.5587 260.04Z" fill="#FFFCFF"/>
<path d="M81.1559 309.669C81.1559 309.669 70.2284 305.014 73.5654 299.828C76.9023 294.643 94.4152 311.646 93.3056 312.659C92.1959 313.672 72.7613 318.11 71.2094 324.18C69.6575 330.25 70.8717 332.139 71.6838 332.815C72.4959 333.49 77.7546 325.796 80.1186 326.335C82.4826 326.873 86.0527 330.379 81.0594 335.58C76.066 340.782 70.1319 341.111 67.2935 338.209C64.4551 335.307 61.5604 324.445 68.8454 316.486C76.1223 308.519 81.1559 309.669 81.1559 309.669Z" fill="#FFFCFF"/>
<path d="M213.338 257.226C198.664 258.127 193.502 253.713 187.125 247.048C180.749 240.392 173.697 233.695 173.697 233.695C173.697 233.695 173.705 233.695 173.729 233.687C174.405 233.59 186.973 231.886 196.155 237.955C205.603 244.202 212.004 237.955 212.004 237.955C211.811 239.684 211.771 241.493 211.923 243.358C211.923 243.358 214.963 241.115 217.592 239.941C220.221 238.76 228.013 256.326 213.338 257.226Z" fill="#FFFCFF"/>
<path d="M282.535 204.875C274.647 196.538 268.368 183.659 268.368 183.659C268.368 183.659 267.965 181.633 267.764 172.934C267.7 170.353 266.968 167.917 265.955 165.763C254.851 133.387 234.636 132.824 192.969 132.824C151.309 132.824 148.672 176.632 148.672 176.632C145.399 180.459 145.166 186.569 144.652 187.703C144.016 189.118 146.308 208.758 133.354 207.142C120.392 205.535 125.659 193.379 125.659 193.379C125.659 193.379 130.717 195.807 134.158 195.606C137.6 195.397 140.438 182.646 125.659 182.847C110.88 183.056 103.394 192.768 104.407 216.83C105.276 237.572 127.05 240.619 133.049 241.078C132.679 241.07 132.228 241.061 131.714 241.061C133.523 241.206 162.639 243.554 174.378 241.053C186.496 238.465 182.138 228.721 194.553 235.466C206.968 242.211 192.937 252.349 215.338 258.347C237.74 264.344 260.938 274.595 265.127 262.592C265.674 258.146 265.835 255.509 263.31 250.315C260.777 245.121 263.31 239.727 265.031 238.304C265.795 237.677 265.465 236.519 264.862 235.426C264.098 234.051 262.908 232.773 262.908 232.773C270.096 231.896 269.316 228.865 268.368 223.873C267.427 218.88 267.153 220.898 276.465 220.898C285.776 220.898 290.432 213.212 282.535 204.875ZM185.676 196.008C185.676 196.008 184.261 201.571 181.422 201.571C178.592 201.571 178.793 197.021 179.605 193.982C180.417 190.951 179.195 182.654 171.813 181.641C164.424 180.628 175.15 188.113 174.137 189.938C173.124 191.755 169.313 189.431 169.192 190.645C169.144 191.216 169.554 191.948 169.755 192.454C170.205 193.596 170.712 194.721 171.226 195.839C172.4 198.387 173.639 200.912 175.022 203.356C175.311 203.862 175.649 204.353 175.995 204.827C176.292 205.237 176.976 205.8 176.196 205.961C174.274 206.347 172.199 206.33 170.406 207.183C170.213 207.271 169.996 207.368 169.811 207.279C169.731 207.239 169.675 207.167 169.618 207.094C168.734 205.961 168.332 204.505 167.817 203.179C167.142 201.434 166.547 199.658 166.032 197.857C165.501 195.959 164.89 193.853 165.027 191.859C165.333 187.51 161.489 180.829 163.507 178.401C165.534 175.973 177.177 174.052 181.422 180.628C185.676 187.204 186.182 188.016 185.676 196.008Z" fill="#B31D20"/>
<path d="M181.423 180.62C177.177 174.044 165.534 175.965 163.508 178.393C161.489 180.821 165.333 187.502 165.027 191.852C164.891 193.845 165.502 195.952 166.032 197.849C166.547 199.65 167.142 201.427 167.818 203.171C168.332 204.498 168.734 205.953 169.619 207.087C169.675 207.159 169.731 207.231 169.812 207.272C169.997 207.36 170.214 207.263 170.407 207.175C172.2 206.323 174.274 206.339 176.196 205.953C176.976 205.792 176.293 205.229 175.995 204.819C175.649 204.345 175.312 203.855 175.022 203.348C173.639 200.904 172.401 198.38 171.227 195.831C170.712 194.714 170.206 193.588 169.755 192.446C169.554 191.94 169.144 191.208 169.193 190.638C169.313 189.424 173.124 191.747 174.138 189.93C175.151 188.105 164.424 180.62 171.814 181.633C179.195 182.646 180.417 190.943 179.605 193.974C178.793 197.013 178.592 201.563 181.423 201.563C184.261 201.563 185.676 196 185.676 196C186.183 188.009 185.676 187.197 181.423 180.62Z" fill="#B31D20"/>
<path d="M264.589 232.7C264.589 232.7 267.355 233.778 264.991 235.329C262.627 236.881 264.926 235.329 259.861 236.342C254.803 237.355 249.81 237.219 249.472 237.556C249.134 237.894 255.004 239.245 253.79 242.613C252.576 245.99 251.16 250.371 246.569 250.307C241.978 250.243 204.532 244.776 201.291 225.618C198.051 206.459 196.7 197.013 199.804 189.19C199.804 189.19 208.44 182.172 212.082 177.05C215.725 171.921 211.27 166.39 211.809 164.501C212.347 162.611 243.924 153.438 260.118 165.715C260.118 165.715 260.761 171.616 259.547 177.694C258.333 183.763 266.028 193.58 268.553 197.222C271.078 200.864 281.41 212.706 277.156 214.322C272.903 215.938 256.106 213.309 256.813 209.772C257.521 206.234 261.774 206.435 261.774 206.435C261.774 206.435 261.372 203.099 258.333 203.501C255.293 203.903 246.995 210.688 254.996 216.251C262.996 221.815 263.294 219.491 262.184 222.522C261.075 225.561 258.944 229.605 251.755 227.989C244.567 226.373 240.153 218.173 238.11 219.692C236.068 221.212 234.042 236.286 236.164 235.989C238.287 235.683 241.222 230.932 244.768 231.133C248.33 231.318 252.913 233.279 264.589 232.7Z" fill="#FFFFFA"/>
<path d="M185.676 196C185.676 196 184.261 201.563 181.423 201.563C178.592 201.563 178.793 197.013 179.605 193.974C180.417 190.943 179.195 182.646 171.814 181.633C164.424 180.62 175.151 188.105 174.138 189.93C173.124 191.747 169.313 189.424 169.193 190.638C169.144 191.208 169.554 191.94 169.755 192.446C170.206 193.588 170.712 194.714 171.227 195.831C172.401 198.38 173.639 200.904 175.022 203.348C175.312 203.855 175.649 204.345 175.995 204.819C176.293 205.229 176.976 205.792 176.196 205.953C174.274 206.339 172.2 206.323 170.407 207.175C170.214 207.263 169.997 207.36 169.812 207.272C169.731 207.231 169.675 207.159 169.619 207.087C168.734 205.953 168.332 204.498 167.818 203.171C167.142 201.427 166.547 199.65 166.032 197.849C165.502 195.952 164.891 193.845 165.027 191.852C165.333 187.502 161.489 180.821 163.508 178.393C165.534 175.965 177.177 174.044 181.423 180.62C185.676 187.197 186.183 188.009 185.676 196Z" fill="#FFFFFA"/>
<path d="M188.812 212.192C188.812 212.192 185.169 206.065 176.767 207.303C168.364 208.55 166.643 227.676 181.422 226.462C196.201 225.248 188.812 212.192 188.812 212.192Z" fill="#FFFFFA"/>
<path d="M185.966 217.473C185.893 215.93 184.615 214.603 183.393 213.807C181.977 212.883 180.353 212.585 178.689 212.754C173.961 213.237 174.572 219.258 177.965 221.188C180.007 222.353 182.798 221.63 184.55 220.239C185.282 219.66 185.853 218.832 185.95 217.9C185.974 217.755 185.974 217.61 185.966 217.473Z" fill="#B31D20"/>
<path d="M222.889 181.496C222.889 181.496 233.953 196.072 242.862 196.337C251.771 196.611 255.14 196.611 254.875 188.917C254.602 181.223 247.719 177.581 242.323 179.47C236.928 181.359 227.078 182.445 222.889 181.496Z" fill="#B31D20"/>
<path d="M255.816 178.98C255.816 178.98 254.602 168.135 241.511 169.759C228.421 171.375 219.648 169.59 219.648 169.59C219.648 169.59 225.317 175.829 234.765 175.419C244.213 175.025 255.816 178.98 255.816 178.98Z" fill="#B31D20"/>
<path d="M224.754 181.762C224.754 181.762 227.48 184.31 238.126 183.659C238.126 183.659 234.194 188.314 238.89 190.645C238.89 190.645 223.178 185.701 222.889 185.379C222.599 185.058 221.401 180.114 221.401 180.114L224.754 181.762Z" fill="#FFFFFC"/>
<path d="M181.423 180.628C185.676 187.204 186.183 188.016 185.676 196.008C185.676 196.008 184.261 201.571 181.423 201.571C178.592 201.571 178.793 197.021 179.605 193.982C180.417 190.951 179.195 182.654 171.814 181.641C164.424 180.628 175.151 188.113 174.138 189.938C173.124 191.755 169.313 189.431 169.193 190.645C169.144 191.216 169.554 191.948 169.755 192.454C170.206 193.596 170.712 194.721 171.227 195.839C172.401 198.387 173.639 200.912 175.022 203.356C175.312 203.862 175.649 204.353 175.995 204.827C176.293 205.237 176.976 205.8 176.196 205.961C174.274 206.347 172.2 206.331 170.407 207.183C170.214 207.271 169.997 207.368 169.812 207.279C169.731 207.239 169.675 207.167 169.619 207.094C168.734 205.961 168.332 204.506 167.818 203.179C167.142 201.434 166.547 199.658 166.032 197.857C165.502 195.96 164.891 193.853 165.027 191.859C165.333 187.51 161.489 180.829 163.508 178.401C165.534 175.973 177.177 174.052 181.423 180.628Z" fill="#FFFCFF"/>
<path d="M252.596 150.213C252.596 150.213 262.117 126.946 225.595 109.404C189.074 91.8616 195.571 71.4732 190.015 73.4107C184.459 75.3483 166.302 113.424 167.701 115.233C169.101 117.042 158.961 108.6 157.377 108.19C155.793 107.78 160.191 121.206 155.11 125.853C150.028 130.5 140.154 153.316 141.046 163.84C141.939 174.364 153.92 181.206 147.591 195.492C141.263 209.778 121.378 240.69 100.408 227.586C100.408 227.586 90.992 219.844 97.2398 214.12C103.487 208.395 96.8699 220.198 106.278 221.605C115.685 223.019 129.17 216.588 127.417 206.361C125.672 196.135 121.644 190.925 106.382 188.964C106.382 188.964 110.073 180.868 123.461 173.608C136.841 166.348 137.46 140.919 132.812 134.198C128.165 127.477 128.406 116.085 110.547 110.521C110.547 110.521 119.553 135.758 102.724 150.736C85.9022 165.713 74.822 174.091 68.1481 194.246C61.4742 214.409 55.0255 243.979 74.9024 260.822C74.9024 260.822 129.813 290.93 163.174 255.226C196.536 219.522 199.326 220.077 199.326 220.077C199.326 220.077 190.385 210.253 197.251 199.713C204.118 189.165 214.017 197.888 211.001 203.113C207.986 208.339 206.643 210.003 200.556 207.382C200.556 207.382 203.483 213.983 210.832 212.375C218.182 210.767 218.085 192.493 209.843 186.737C209.843 186.737 208.862 160.222 242.393 154.458C242.385 154.482 245.48 154.747 252.596 150.213Z" fill="#B31D20"/>
<path d="M195.475 167.096C195.475 167.096 195.724 161.685 189.074 154.707C182.416 147.729 171.609 137.366 177.632 119.06C183.655 100.753 188.897 92.553 188.897 92.553C188.897 92.553 207.737 112.724 210.567 122.476C213.398 132.228 211.516 150.856 201.184 156.572C201.184 156.572 204.054 147.761 204.36 137.39C204.665 127.019 198.498 112.354 188.415 104.226C188.415 104.226 183.791 123.53 184.563 130.259C185.327 136.988 193.239 149.329 196.078 155.817C198.908 162.296 195.475 167.096 195.475 167.096Z" fill="#FEFEFC"/>
<path d="M199.045 148.541C199.045 148.541 202.985 137.719 200.854 134.487C198.715 131.255 194.454 126.118 194.454 126.118C194.454 126.118 190.61 130.829 191.623 134.833C192.636 138.845 193.344 145.26 199.045 148.541Z" fill="#FEFEFC"/>
<path d="M202.679 174.549C202.679 174.549 200.17 164.435 213.735 156.243C227.308 148.058 234.247 144.867 236.322 140.373C238.396 135.878 239.329 127.565 239.329 127.565C239.329 127.565 245.038 132.92 243.462 137.752C241.886 142.583 240.599 148.404 228.932 153.437C217.265 158.462 204.536 174.927 202.679 174.549Z" fill="#FEFEFC"/>
<path d="M160.818 159.652C160.818 159.652 159.701 147.946 165.088 145.237C165.088 145.237 167.806 153.75 173.595 158.438C179.385 163.125 180.8 166.984 180.8 166.984C180.8 166.984 183.904 159.764 181.009 153.678C178.114 147.592 167.114 139.512 164.139 128.522C164.139 128.522 162.829 134.206 161.028 137.647C159.226 141.088 151.379 150.285 152.866 155.648C154.354 161.01 159.114 171.14 165.45 172.909C171.786 174.678 170.765 167.329 170.765 167.329C170.765 167.329 164.943 168.069 160.818 159.652Z" fill="#FEFEFC"/>
<path d="M70.3271 229.853C70.3271 229.853 66.4756 204.255 80.2575 189.092C94.0395 173.93 105.474 164.379 110.933 161.605C116.393 158.831 118.114 153.348 118.355 149.907C118.596 146.466 126.629 150.631 123.059 157.786C119.489 164.941 108.819 171.735 100.665 176.406C92.5117 181.077 79.2122 200.38 77.8051 209.794C76.3899 219.201 73.5515 228.631 77.6041 238.335C81.6647 248.039 87.036 255.459 83.0638 256.175C79.0916 256.89 72.1283 247.637 70.3271 229.853Z" fill="#FEFEFC"/>
<path d="M118.877 241.189C118.877 241.189 119.52 238.279 122.544 240.16C125.567 242.041 135.723 270.357 111.142 265.356C111.142 265.356 100.311 263.909 104.685 251.03C109.059 238.15 118.467 247.524 114.913 250.877C111.351 254.229 110.828 258.378 115.13 258.249C119.416 258.128 125.857 254.599 118.877 241.189Z" fill="#FEFEFC"/>
<path d="M131.614 241.599C131.614 241.599 143.587 244.799 153.389 239.444C163.191 234.09 167.082 231.324 169.615 231.791C172.14 232.249 165.177 237.748 163.528 239.991C161.88 242.234 148.814 252.798 131.614 241.599Z" fill="#FEFEFC"/>
<path d="M80.5708 218.445C80.5708 218.445 87.1241 192.967 105.16 194.398C123.187 195.829 118.62 213.541 113.876 211.298C109.132 209.055 111.745 203.539 107.025 203.21C102.305 202.872 95.0201 204.52 90.662 211.989C86.3039 219.458 84.7681 228.237 86.3682 233.744C87.9683 239.251 95.0121 245.876 92.9295 248.328C90.847 250.78 88.3623 253.184 87.2849 249.912C86.1994 246.648 77.5394 237.788 80.5708 218.445Z" fill="#FEFEFC"/>
<path d="M173.893 198.467C173.893 198.467 165.578 186.689 174.841 176.551C184.104 166.413 193.987 179.212 193.263 185.652C192.539 192.091 186.316 195.267 183.469 192.759C180.631 190.25 185.978 188.305 186.195 186.64C186.412 184.976 180.88 179.574 178.339 184.245C175.798 188.916 178.42 196.296 181.893 198.676C185.367 201.055 193.544 205.678 191.59 214.514C189.637 223.349 183.526 231.228 174.753 228.776C165.989 226.324 160.899 219.104 165.024 211.885C169.149 204.657 176.852 206.908 176.852 206.908C176.852 206.908 179.352 204.681 173.893 198.467Z" fill="#FEFEFC"/>
<path d="M176.306 212.938C176.507 213.066 176.692 213.227 176.852 213.396C177.648 214.24 178.637 215.245 179.586 213.983C180.221 213.131 180.406 211.989 180.672 210.984C181.05 209.545 181.564 207.318 183.381 207.165C186.268 206.924 189.332 220.173 180.028 221.09C170.725 222.006 169.141 221.122 169.165 218.268C169.181 216.757 169.157 215.028 170.05 213.734C171.015 212.335 173.057 212.086 174.617 212.319C175.22 212.399 175.807 212.6 176.306 212.938Z" fill="#B31D20"/>
</g>
<defs>
<clipPath id="clip0_291_3286">
<rect x="0.5" width="400" height="400" rx="20" fill="white"/>
</clipPath>
</defs>
</svg>
