<svg width="401" height="400" viewBox="0 0 401 400" fill="none" xmlns="http://www.w3.org/2000/svg">
<g clip-path="url(#clip0_291_3339)">
<rect x="0.5" width="400" height="400" rx="20" fill="white"/>
<path d="M237.33 157.846C237.33 157.846 246.85 134.58 210.329 117.038C173.807 99.4951 180.304 79.1067 174.748 81.0443C169.192 82.9818 151.036 121.057 152.435 122.866C153.834 124.675 143.694 116.234 142.11 115.824C140.526 115.414 144.925 128.84 139.843 133.487C134.761 138.133 124.887 160.95 125.78 171.474C126.672 181.997 138.653 188.839 132.325 203.125C125.997 217.412 106.112 248.324 85.1412 235.219C85.1412 235.219 75.7254 227.477 81.9732 221.753C88.2209 216.029 81.6033 227.831 91.0111 229.238C100.419 230.653 113.903 224.221 112.15 213.995C110.405 203.769 106.377 198.559 91.1156 196.597C91.1156 196.597 94.8063 188.501 108.194 181.242C121.574 173.982 122.193 148.553 117.546 141.832C112.898 135.111 113.139 123.718 95.2807 118.155C95.2807 118.155 104.286 143.391 87.457 158.369C70.6356 173.347 59.5554 181.724 52.8815 201.879C46.2076 222.043 39.7589 251.612 59.6358 268.455C59.6358 268.455 114.547 298.563 147.908 262.86C181.269 227.156 184.059 227.711 184.059 227.711C184.059 227.711 175.118 217.886 181.985 207.346C188.852 196.798 198.75 205.521 195.735 210.747C192.719 215.973 191.377 217.637 185.29 215.016C185.29 215.016 188.217 221.617 195.566 220.009C202.915 218.401 202.819 200.127 194.577 194.37C194.577 194.37 193.596 167.856 227.126 162.091C227.118 162.116 230.214 162.381 237.33 157.846Z" fill="#B31D20"/>
<path d="M180.208 174.73C180.208 174.73 180.457 169.319 173.807 162.341C167.15 155.362 156.343 144.999 162.365 126.693C168.388 108.387 173.631 100.187 173.631 100.187C173.631 100.187 192.47 120.358 195.301 130.11C198.131 139.862 196.249 158.49 185.917 164.206C185.917 164.206 188.788 155.394 189.093 145.023C189.399 134.652 183.231 119.988 173.148 111.86C173.148 111.86 168.525 131.163 169.297 137.892C170.06 144.621 177.973 156.962 180.811 163.45C183.641 169.93 180.208 174.73 180.208 174.73Z" fill="#FEFEFC"/>
<path d="M183.778 156.174C183.778 156.174 187.718 145.353 185.587 142.121C183.449 138.889 179.187 133.752 179.187 133.752C179.187 133.752 175.343 138.463 176.357 142.467C177.37 146.478 178.077 152.894 183.778 156.174Z" fill="#FEFEFC"/>
<path d="M187.412 182.182C187.412 182.182 184.904 172.069 198.469 163.876C212.041 155.692 218.981 152.5 221.055 148.006C223.13 143.512 224.062 135.199 224.062 135.199C224.062 135.199 229.771 140.553 228.195 145.385C226.619 150.217 225.333 156.038 213.666 161.07C201.998 166.095 189.27 182.56 187.412 182.182Z" fill="#FEFEFC"/>
<path d="M145.552 167.285C145.552 167.285 144.434 155.579 149.822 152.87C149.822 152.87 152.539 161.384 158.329 166.071C164.118 170.758 165.533 174.617 165.533 174.617C165.533 174.617 168.637 167.398 165.742 161.312C162.848 155.226 151.848 147.146 148.873 136.156C148.873 136.156 147.562 141.84 145.761 145.281C143.96 148.722 136.112 157.919 137.6 163.281C139.087 168.644 143.847 178.774 150.183 180.542C156.52 182.311 155.498 174.963 155.498 174.963C155.498 174.963 149.677 175.703 145.552 167.285Z" fill="#FEFEFC"/>
<path d="M55.0605 237.487C55.0605 237.487 51.209 211.889 64.9909 196.726C78.7729 181.563 90.2069 172.012 95.6667 169.239C101.126 166.465 102.847 160.982 103.088 157.541C103.33 154.1 111.362 158.264 107.792 165.42C104.222 172.575 93.5519 179.368 85.3985 184.039C77.2451 188.71 63.9456 208.013 62.5385 217.428C61.1233 226.834 58.2849 236.265 62.3375 245.968C66.3981 255.672 71.7694 263.093 67.7972 263.808C63.825 264.524 56.8617 255.27 55.0605 237.487Z" fill="#FEFEFC"/>
<path d="M103.611 248.823C103.611 248.823 104.254 245.912 107.277 247.794C110.301 249.675 120.456 277.99 95.8753 272.99C95.8753 272.99 85.0443 271.542 89.4185 258.663C93.7927 245.784 103.2 255.158 99.6465 258.51C96.0844 261.863 95.5617 266.011 99.8635 265.883C104.149 265.762 110.59 262.233 103.611 248.823Z" fill="#FEFEFC"/>
<path d="M116.348 249.233C116.348 249.233 128.32 252.432 138.122 247.078C147.924 241.724 151.816 238.958 154.349 239.424C156.873 239.882 149.91 245.382 148.262 247.625C146.613 249.868 133.547 260.432 116.348 249.233Z" fill="#FEFEFC"/>
<path d="M65.3042 226.078C65.3042 226.078 71.8575 200.601 89.893 202.032C107.921 203.463 103.353 221.174 98.6093 218.931C93.8652 216.688 96.4784 211.173 91.7585 210.843C87.0385 210.506 79.7535 212.154 75.3954 219.623C71.0373 227.091 69.5015 235.871 71.1016 241.378C72.7017 246.885 79.7455 253.51 77.6629 255.962C75.5804 258.414 73.0957 260.817 72.0183 257.545C70.9328 254.281 62.2728 245.422 65.3042 226.078Z" fill="#FEFEFC"/>
<path d="M158.626 206.1C158.626 206.1 150.312 194.322 159.575 184.184C168.838 174.046 178.72 186.845 177.996 193.285C177.273 199.725 171.049 202.9 168.203 200.392C165.364 197.884 170.711 195.938 170.928 194.274C171.146 192.61 165.613 187.207 163.073 191.878C160.532 196.549 163.153 203.93 166.627 206.309C170.1 208.689 178.278 213.312 176.324 222.147C174.37 230.983 168.259 238.862 159.486 236.409C150.722 233.957 145.632 226.738 149.757 219.518C153.882 212.291 161.585 214.542 161.585 214.542C161.585 214.542 164.086 212.315 158.626 206.1Z" fill="#FEFEFC"/>
<path d="M161.039 220.571C161.24 220.7 161.425 220.861 161.586 221.03C162.382 221.874 163.371 222.879 164.32 221.616C164.955 220.764 165.14 219.623 165.405 218.618C165.783 217.179 166.298 214.952 168.115 214.799C171.002 214.558 174.065 227.807 164.762 228.723C155.459 229.64 153.875 228.756 153.899 225.902C153.915 224.39 153.891 222.662 154.783 221.367C155.748 219.968 157.79 219.719 159.35 219.952C159.953 220.033 160.54 220.234 161.039 220.571Z" fill="#B31D20"/>
<path d="M296.311 403.137C296.311 403.137 304.681 390.724 309.538 374.532C314.394 358.34 326.809 322.452 328.972 317.588C331.135 312.732 323.537 314.283 327.79 308.712C332.044 303.14 333.459 305.271 333.966 305.271C334.472 305.271 337.303 293.63 345.303 293.429C353.296 293.228 349.05 305.166 347.33 307.594C345.609 310.022 351.165 309.717 350.007 313.061C348.849 316.398 348.238 319.943 344.089 321.358C339.94 322.773 334.979 346.659 334.979 346.659L313.116 403.129H296.311V403.137Z" fill="#B31D20"/>
<path d="M331.843 309.427C331.843 309.427 331.666 314.653 338.758 315.361C345.842 316.068 346.622 313.375 346.622 313.375L331.843 309.427Z" fill="#FFFEFB"/>
<path d="M340.165 381.784C337.029 384.815 337.029 385.321 337.335 388.561C337.64 391.801 333.789 395.443 323.263 392.002C312.738 388.561 306.193 386.744 306.193 386.744C282.44 387.419 255.552 374.902 249.883 371.059C244.214 367.208 240.065 327.942 240.065 327.942C238.754 328.859 226.404 350.108 223.163 356.178C219.923 362.247 213.45 370.954 215.372 374.395C217.293 377.836 225.294 400.098 225.294 400.098H126.102C125.025 394.028 109.369 377.836 109.185 373.117C109 368.39 126.504 341.135 130.018 326.158C133.524 311.18 120.16 291.21 118.946 291.346C117.732 291.483 88.5839 335.604 87.9085 345.855C87.2331 356.113 100.058 373.519 106.129 380.538C112.2 387.548 119.895 400.098 119.895 400.098H83.4539C83.4539 400.098 69.286 386.334 60.1114 375.408C50.9368 364.474 49.988 359.216 49.385 346.466C48.7739 333.715 57.4821 319.549 64.1559 300.519C70.8379 281.498 84.2017 256.398 99.7848 234.739C115.376 213.089 169.016 227.255 169.016 227.255C169.016 227.255 195.125 231.773 202.136 228.943C209.156 226.105 229.475 232.649 229.475 232.649C259.025 232.512 264.557 250.867 266.994 263.007C269.422 275.154 272.654 302.143 273.466 313.069C274.279 323.995 277.583 349.907 277.583 349.907C283.59 350.984 302.413 358.605 302.413 358.605C305.252 347.278 308.283 343.933 314.861 339.889C321.446 335.837 340.366 344.134 340.366 344.134C340.366 344.134 349.476 343.732 352.717 353.243C355.957 362.754 343.301 378.745 340.165 381.784Z" fill="#B31D20"/>
<path d="M304.335 379.251C304.335 379.251 307.27 370.753 307.776 364.579C308.283 358.404 311.62 345.654 316.782 345.557C321.944 345.461 322.25 347.077 319.613 351.121C316.983 355.165 313.944 362.858 314.048 368.422C314.153 373.993 310.711 378.954 304.335 379.251Z" fill="#FFFFFB"/>
<path d="M328.932 345.549C328.932 345.549 325.555 343.901 325.555 347.945C325.555 351.989 326.294 350.775 332.639 353.613C338.983 356.443 343.775 360.021 345.391 359.619C347.008 359.217 346.405 354.023 345.327 352.801C344.25 351.579 328.932 345.549 328.932 345.549Z" fill="#FFFFFB"/>
<path d="M324.55 363.51C323.963 363.405 323.368 363.317 322.765 363.253C322.009 363.172 320.996 362.859 321.237 361.902C321.688 360.133 322.596 355.985 326.697 356.588C330.798 357.199 342.232 363.976 342.891 366.806C343.1 367.69 342.988 368.84 342.385 369.556C341.532 370.577 340.31 370.038 339.426 369.371C337.118 367.642 334.674 366.637 331.964 365.721C329.503 364.885 327.123 363.976 324.55 363.51Z" fill="#FFFFFB"/>
<path d="M321.245 374.13C321.245 374.13 317.996 373.929 319.347 371.565C320.698 369.202 321.036 368.189 324.067 368.526C327.107 368.864 337.56 372.707 337.56 375.271C337.56 377.836 337.286 379.79 333.781 378.648C330.283 377.498 324.622 373.792 321.245 374.13Z" fill="#FFFFFB"/>
<path d="M315.906 382.966C315.906 382.966 313.743 383.504 314.153 380.538C314.555 377.571 317.796 377.571 320.16 378.447C322.524 379.324 332.575 383.102 332.374 384.59C332.173 386.077 331.497 388.971 326.769 387.082C322.049 385.193 315.906 382.966 315.906 382.966Z" fill="#FFFFFB"/>
<path d="M158.491 232.521C158.491 232.521 169.628 229.892 176.607 240.415C183.587 250.939 198.872 268.039 212.333 265.515C225.793 262.983 228.929 256.76 228.728 251.976C228.527 247.193 224.378 240.214 227.514 239.603C230.65 238.992 236.013 245.472 235.209 252.756C234.397 260.04 229.942 275.83 208.594 272.284C187.237 268.739 184.407 258.424 180.354 254.171C176.302 249.926 166.283 235.761 158.491 232.521Z" fill="#FFFCFF"/>
<path d="M110.705 258.746C111.026 258.915 111.372 259.051 111.742 259.156C113.8 259.735 118.753 260.008 120.12 257.845C120.313 257.54 120.579 255.594 119.959 255.594C117.129 250.465 115.441 249.452 117.869 248.777C120.297 248.101 128.459 253.432 126.979 258.698C125.492 263.964 121.31 269.495 112.2 267.469C103.09 265.443 97.3567 256.406 100.895 246.389C104.433 236.372 116.076 230.808 124.985 231.516C133.894 232.223 146.944 239.716 153.53 259.952C160.107 280.187 165.977 293.244 178.529 298.1C191.081 302.956 204.943 311.461 207.677 328.361C210.411 345.26 199.982 364.491 194.618 364.081C189.255 363.679 197.859 355.784 199.885 344.247C201.911 332.71 199.885 319.348 193.203 313.889C186.521 308.422 178.529 305.593 171.742 302.964C164.956 300.335 159.094 294.562 155.444 284.947C151.801 275.332 146.333 261.873 143.302 254.083C141.477 249.388 137.263 245.368 133.299 242.433C128.917 239.202 122.348 235.825 116.976 238.639C115.392 239.467 114.041 240.681 112.835 241.999C109.482 245.649 104.071 255.297 110.705 258.746Z" fill="#FFFCFF"/>
<path d="M159.158 249.516C159.158 249.516 154.84 248.029 154.438 245.472C154.036 242.908 159.029 243.044 161.385 244.532C163.749 246.019 172.723 251.277 172.787 263.827C172.787 263.827 177.644 259.509 180.482 260.185C183.313 260.86 180.683 264.164 179.131 267.002C177.579 269.832 172.859 274.897 175.215 279.89C177.579 284.882 184.39 288.46 185.942 286.434C187.494 284.408 183.313 279.825 185.467 278C187.63 276.175 193.967 278.402 193.967 284.207C193.967 290.012 191.675 297.191 181.351 293.042C171.026 288.894 165.357 279.383 166.773 266.632C168.204 253.874 159.158 249.516 159.158 249.516Z" fill="#FFFCFF"/>
<path d="M219.319 327.034C219.319 327.034 227.722 311.751 226.91 296.371C226.098 280.991 216.69 275.219 213.546 275.725C210.402 276.232 202.514 281.9 204.235 292.729C205.956 303.558 216.481 316.92 219.319 327.034Z" fill="#FFFCFF"/>
<path d="M218.001 311.052C217.889 310.907 218.838 308.897 218.91 308.688C219.585 306.766 220.148 304.797 220.542 302.803C221.772 296.612 220.373 289.216 216.996 283.87C216.61 283.259 216.176 282.664 215.589 282.246C214.737 281.643 213.772 281.586 212.936 282.205C209.8 284.537 207.781 298.397 218.001 311.052Z" fill="#B31D20"/>
<path d="M232.273 282.816C232.273 282.816 233.793 282.262 233.383 280.541C232.973 278.821 230.85 275.074 233.89 274.214C236.929 273.354 239.711 273.965 239.156 279.528C238.602 285.092 235.361 290.759 232.732 289.545C230.094 288.331 232.273 282.816 232.273 282.816Z" fill="#FFFCFF"/>
<path d="M243.965 285.952C243.965 285.952 245.638 279.745 243.965 274.753C242.293 269.76 237.026 261.118 241.48 257.339C245.935 253.568 245.798 263.521 248.227 268.868C250.655 274.214 251.869 299.314 236.889 300.391C236.889 300.391 235.675 299.651 239.655 294.586C243.635 289.521 243.965 285.952 243.965 285.952Z" fill="#FFFCFF"/>
<path d="M147.153 294.265C147.153 294.265 144.452 305.786 155.652 309.693C166.853 313.608 174.195 309.154 174.195 309.154C174.195 309.154 175.288 307.402 170.158 307.201C165.028 307 156.867 304.499 152.01 296.403C147.386 288.701 147.153 294.265 147.153 294.265Z" fill="#FFFCFF"/>
<path d="M174.291 327.541C174.291 327.541 174.475 320.056 180.852 323.191C187.228 326.327 189.053 343.636 183.787 352.029C178.52 360.431 179.839 368.422 182.573 366.806C185.306 365.19 191.988 355.374 193.404 343.427C194.819 331.48 191.787 319.951 184.293 316.607C176.799 313.262 169.112 315.899 167.592 321.969C166.073 328.039 168.3 337.253 175.079 336.843C181.857 336.433 173.784 330.065 174.291 327.541Z" fill="#FFFCFF"/>
<path d="M204.308 366.34C204.308 366.227 204.324 366.115 204.356 366.002C204.436 365.737 204.589 365.496 204.75 365.271C207.226 361.613 209.759 358.027 211.255 353.822C213.281 348.154 217.736 338.442 223.943 327.042C230.151 315.642 237.653 304.982 243.217 302.417C248.773 299.852 248.211 298.711 249.706 301.372C251.202 304.033 245.943 306.815 241.593 311.309C237.243 315.803 227.425 339.785 220.341 348.596C217.872 351.668 215.87 355.084 213.86 358.461C212.236 361.186 210.684 364.233 208.416 366.493C207.749 367.16 206.832 367.948 205.803 367.803C205.08 367.699 204.308 367.104 204.308 366.34Z" fill="#FFFCFF"/>
<path d="M154.415 324.51C154.415 324.51 154.439 320.056 157.679 320.16C160.92 320.265 158.893 329.502 161.933 333.836C164.972 338.169 169.218 337.767 173.576 343.531C177.926 349.296 178.231 367.111 173.576 366.203C168.92 365.295 175.297 351.933 168.108 347.077C160.92 342.213 153.787 342.213 154.415 324.51Z" fill="#FFFCFF"/>
<path d="M144.468 348.87C143.76 347.615 146.671 344.866 147.515 344.247C151.101 341.626 154.921 345.187 157.462 347.591C160.605 350.55 163.766 354.079 165.655 358.003C168.059 362.995 171.855 387.098 144.178 386.069C144.178 386.069 129.809 383.979 129.399 371.702C128.989 359.426 140.801 353.894 148.359 358.413C155.918 362.931 152.412 377.306 145.593 371.975C145.593 371.975 146.872 364.973 143.567 364.089C140.262 363.204 136.21 366.042 137.022 372.112C137.834 378.182 143.028 382.298 151.19 379.806C157.22 377.965 162.873 372.538 161.297 365.753C160.589 362.706 158.82 359.852 156.842 357.464C153.755 353.726 149.405 351.611 145.183 349.448C144.918 349.304 144.62 349.143 144.468 348.87Z" fill="#FFFCFF"/>
<path d="M127.92 387.146C127.92 387.146 137.536 391.496 146.944 390.788C156.36 390.081 166.66 382.491 176.944 376.212C187.229 369.933 206.76 368.518 210.306 381.88C213.852 395.242 205.956 401.207 198.767 400.098C191.579 398.988 191.78 387.516 196.845 385.916C201.903 384.316 194.924 390.893 199.073 392.203C203.222 393.522 206.06 389.638 205.554 385.916C205.047 382.194 197.762 372.675 182.983 380.666C168.204 388.658 160.107 401.312 144.829 397.364C129.544 393.425 127.011 389.478 127.92 387.146Z" fill="#FFFCFF"/>
<path d="M183.28 400.235C183.28 400.235 175.625 392.75 186.955 383.303C186.955 383.303 190.999 380.602 190.332 386.68C189.657 392.75 183.867 394.832 190.404 400.235" fill="#FFFCFF"/>
<path d="M161.386 400.235C161.386 400.235 168.405 391.672 172.112 393.023C175.827 394.374 170.287 400.235 170.287 400.235H161.386Z" fill="#FFFCFF"/>
<path d="M91.0851 260.04C90.2971 260.137 89.9272 261.471 89.7342 262.074C89.4447 263.007 89.3965 264.012 89.5814 264.968C89.8226 266.182 90.3855 267.324 91.077 268.345C94.7195 273.74 102.889 283.524 98.9731 287.704C95.0572 291.885 91.278 293.171 88.1743 289.192C85.0705 285.212 90.4659 283.998 91.5514 285.686C91.5514 285.686 95.3949 286.965 94.1808 283.058C92.9666 279.142 85.5449 275.975 81.8301 280.565C78.1152 285.156 79.4017 289.602 81.219 292.641C83.0362 295.68 85.1349 299.659 93.232 298.711C96.6332 298.317 100.034 296.58 102.567 294.265C104.143 292.826 105.55 290.896 105.928 288.766C106.371 286.281 106.137 283.717 105.55 281.281C103.564 273.072 98.7319 265.29 91.8329 260.338C91.6157 260.185 91.3745 260.024 91.1092 260.04C91.1092 260.04 91.0931 260.04 91.0851 260.04Z" fill="#FFFCFF"/>
<path d="M82.6822 309.669C82.6822 309.669 71.7548 305.014 75.0917 299.828C78.4287 294.643 95.9416 311.646 94.8319 312.659C93.7223 313.672 74.2876 318.11 72.7358 324.18C71.1839 330.25 72.398 332.139 73.2102 332.815C74.0223 333.49 79.281 325.796 81.645 326.335C84.009 326.873 87.5791 330.379 82.5858 335.58C77.5924 340.782 71.6583 341.111 68.8199 338.209C65.9815 335.307 63.0868 324.445 70.3718 316.486C77.6487 308.519 82.6822 309.669 82.6822 309.669Z" fill="#FFFCFF"/>
<path d="M214.865 257.226C200.19 258.127 195.028 253.713 188.652 247.048C182.275 240.392 175.224 233.695 175.224 233.695C175.224 233.695 175.232 233.695 175.256 233.687C175.931 233.59 188.499 231.886 197.682 237.955C207.13 244.202 213.53 237.955 213.53 237.955C213.337 239.684 213.297 241.493 213.45 243.358C213.45 243.358 216.489 241.115 219.118 239.941C221.748 238.76 229.539 256.326 214.865 257.226Z" fill="#FFFCFF"/>
<path d="M259.992 264.537C259.992 264.537 262.693 265.348 259.453 270.743C256.212 276.138 255.674 280.19 250.278 281.002C244.883 281.814 222.61 275.197 219.779 273.718C216.949 272.23 201.559 265.083 193.872 264.545C186.177 264.006 168.905 258.338 160.543 243.36C152.172 228.382 144.349 222.449 136.79 220.15C129.232 217.859 116.415 202.069 114.388 196.803C112.362 191.537 104.128 184.663 111.823 171.438C119.518 158.213 119.108 158.076 119.108 155.922C119.108 153.759 120.596 148.228 126.932 150.527C133.268 152.826 159.047 173.062 163.365 171.309C167.683 169.557 174.164 148.774 196.156 147.962C218.155 147.15 230.836 152.416 234.349 151.468C237.855 150.527 251.082 141.209 258.239 144.047C265.395 146.877 268.362 149.98 267.823 153.357C267.285 156.734 261.616 164.693 266.746 167.257C271.876 169.822 274.168 176.905 273.83 182.637C273.492 188.369 271.402 195.115 270.187 196.465C268.973 197.816 277.472 195.726 279.973 202.672C282.466 209.618 280.914 210.832 280.914 210.832C280.914 210.832 288.07 218.116 288.673 224.596C289.276 231.076 289.614 234.854 279.595 235.763C269.576 236.671 265.323 237.178 266.537 239.815C267.751 242.452 272.608 242.444 272.809 246.086C273.018 249.728 272.776 256.473 259.992 264.537Z" fill="#B31D20"/>
<path d="M263.401 175.249C263.401 175.249 264.816 176.768 265.829 175.755C266.843 174.742 260.265 161.79 256.213 161.389C252.168 160.987 245.888 167.056 243.259 165.842C240.63 164.628 239.922 163.72 239.922 163.72C239.922 163.72 249.338 157.618 254.564 157.851C259.791 158.084 263.506 155.021 259.71 149.956C255.915 144.899 240.983 157.192 236.939 158.052C232.894 158.912 225.786 152.955 211.892 152.69C197.989 152.416 184.296 160.85 179.439 170.16C174.582 179.47 180.653 190.066 188.951 190.604C197.249 191.143 199.814 197.76 203.529 196.473C207.244 195.195 200.626 190.878 208.458 183.047C216.282 175.225 224.315 172.049 231.535 177.315C238.756 182.581 241.723 187.437 242.801 187.236C243.878 187.035 242.189 179.614 245.366 176.977C248.534 174.348 251.3 169.822 257.041 171.309C262.758 172.789 263.401 175.249 263.401 175.249Z" fill="#FFFCFF"/>
<path d="M234.253 166.847C234.253 166.847 228.383 158.953 211.071 160.368C193.767 161.782 191.234 186.175 193.357 185.467C195.48 184.76 199.733 169.476 210.661 166.952C221.596 164.42 234.253 166.847 234.253 166.847Z" fill="#B31D20"/>
<path d="M262.557 191.071C262.557 191.071 259.051 196.2 260.418 196.296C261.785 196.401 266.642 195.854 267.301 191.071C267.96 186.279 266.441 177.58 258.344 176.567C255.071 176.157 250.97 176.543 249.169 179.743C247.681 182.38 247.496 185.395 247.513 188.353C247.521 190.805 247.014 194.536 249.04 196.329C250.681 197.784 253.246 197.615 255.256 197.309C255.256 197.309 254.243 195.187 252.216 193.266C250.19 191.344 251.107 182.589 256.518 182.894C261.93 183.192 263.184 186.448 262.557 191.071Z" fill="#FFFCFF"/>
<path d="M237.968 192.124C237.18 188.128 234.462 184.47 231.165 182.219C229.855 181.327 228.407 180.619 226.88 180.193C225.553 179.831 224.186 179.662 222.811 179.662C217.906 179.662 214.095 182.525 212.028 186.858C210.452 190.154 209.455 193.9 210.131 197.558C210.742 200.879 213.122 203.853 216.137 205.357C216.226 205.397 216.306 205.445 216.394 205.486C218.726 206.563 221.404 206.7 223.913 206.314C226.679 205.879 229.565 204.923 232.082 203.701C234.213 202.672 236.207 201.088 237.244 198.917C238.282 196.787 238.418 194.415 237.968 192.124Z" fill="#FFFCFF"/>
<path d="M231.655 192.084C231.655 192.084 230.24 186.979 223.285 186.979C216.338 186.979 215.799 194.986 215.799 194.986C215.799 194.986 215.662 201.056 225.448 201.056C235.234 201.056 231.655 192.084 231.655 192.084Z" fill="#B31D20"/>
<path d="M197.209 199.633C197.209 199.633 185.269 192.952 176.159 194.777C167.048 196.602 156.724 207.729 160.165 221.187C163.607 234.645 169.581 246.182 192.723 253.466C215.864 260.75 211.683 269.047 227.065 270.164C242.447 271.274 252.168 271.274 257.934 264.898C257.934 264.898 251.002 265.356 246.194 265.356C241.386 265.356 214.433 260.348 209.922 247.195C209.922 247.195 227.877 261.586 248.116 259.673C268.355 257.759 266.939 248.2 266.939 248.2C266.939 248.2 257.017 253.804 247.103 252.791C237.18 251.778 227.531 249.076 223.688 247.999C219.844 246.922 211.948 242.532 211.337 241.117C210.726 239.702 200.337 230.931 198.046 229.307C195.754 227.691 195.215 226.268 197.434 225.93C199.662 225.593 219.973 225.191 225.706 227.418C231.439 229.645 243.725 233.15 251.01 231.598C258.295 230.047 260.861 228.696 266.465 229.436C272.069 230.175 274.763 232.603 281.381 229.709C287.99 226.807 283.544 216.347 274.835 213.043C274.835 213.043 280.231 204.408 269.979 201.305C259.727 198.202 241.844 203.982 237.526 206.491C233.208 208.999 228.416 212.569 231.656 215.945C234.897 219.322 234.253 225.392 234.253 225.392C234.253 225.392 230.104 221.677 227.941 218.108C225.778 214.53 221.67 211.025 218.357 210.35C215.044 209.674 202.5 203.87 198.753 204.143C198.753 204.143 200.538 206.973 200.474 208.195C200.474 208.195 176.247 201.04 174.156 216.492C172.066 231.944 175.234 235.176 175.234 235.176C175.234 235.176 168.287 230.794 168.15 222.626C168.013 214.466 165.657 206.973 175.169 203.331C184.682 199.689 197.209 199.633 197.209 199.633Z" fill="#FFFCFF"/>
<path d="M212.896 220.552C212.896 220.552 206.214 210.43 190.43 213.533C174.638 216.636 181.199 243.296 196.163 246.52C196.163 246.52 186.715 232.418 187.728 227.562C188.742 222.706 189.345 215.013 207.967 221.018C207.967 221.026 210.806 221.766 212.896 220.552Z" fill="#B31D20"/>
<path d="M255.81 223.993C255.81 223.993 252.57 212.255 248.863 209.827C245.148 207.399 240.967 209.425 241.779 212.295C242.591 215.157 244.071 216.982 245.156 216.781C246.242 216.58 245.727 212.191 248.75 216.379C251.774 220.568 253.109 225.271 255.81 223.993Z" fill="#B31D20"/>
<path d="M267.43 213.26C267.43 213.26 269.094 207.656 266.465 205.839C263.835 204.014 258.979 210.591 260.394 212.938C261.809 215.286 263.9 217.44 264.712 217.239C264.712 217.239 262.026 213.935 264.045 213.597C266.063 213.26 265.291 213.839 267.43 213.26Z" fill="#B31D20"/>
<path d="M255.811 247.404C255.811 247.404 250.544 242.138 245.349 242.21C240.155 242.283 243.259 248.618 243.259 248.618L255.811 247.404Z" fill="#FFFCFF"/>
<path d="M236.577 247.332C236.577 247.332 237.116 243.617 232.46 242.202C227.804 240.787 227.065 240.313 225.239 240.988C223.414 241.664 227.756 246.455 230.916 247.058C234.084 247.669 236.577 247.332 236.577 247.332Z" fill="#FFFCFF"/>
<path d="M163.607 185.483C163.607 185.483 163.205 175.249 146.906 165.939C130.607 156.629 123.523 154.201 123.523 154.201C123.523 154.201 121.698 179.397 122.51 184.663C123.322 189.929 124.126 214.289 142.548 216.476C160.969 218.663 154.593 210.969 148.723 211.58C142.853 212.191 135.568 210.969 132.424 202.27C129.28 193.571 127.544 168.697 128.878 162.908C128.878 162.908 156.748 177.854 156.949 185.877C157.15 193.909 148.241 187.702 147.638 186.416C147.026 185.137 144.598 176.905 138.664 177.508C132.73 178.119 134.346 183.176 137.45 184.526C140.554 185.877 142.982 187.694 141.768 189.519C140.554 191.344 137.176 191.746 134.949 189.792C132.722 187.839 132.288 187.533 131.106 188.916C129.916 190.299 137.715 208.75 147.3 209.023C156.884 209.296 147.026 202.005 145.684 200.791C144.333 199.577 143.521 193.507 147.509 193.772C151.489 194.045 153.379 199.038 157.769 197.076C162.151 195.115 163.566 194.069 163.607 185.483Z" fill="#FFFCFF"/>
</g>
<defs>
<clipPath id="clip0_291_3339">
<rect x="0.5" width="400" height="400" rx="20" fill="white"/>
</clipPath>
</defs>
</svg>
