<svg width="125" height="126" viewBox="0 0 125 126" fill="none" xmlns="http://www.w3.org/2000/svg">
<path d="M110.676 46.943V30.8805C110.676 26.6219 108.985 22.5376 105.973 19.5263C102.962 16.515 98.8778 14.8232 94.6191 14.8232H78.5566M78.5566 111.177H94.6191C98.8778 111.177 102.962 109.486 105.973 106.474C108.985 103.463 110.676 99.3788 110.676 95.1201V79.0576M14.3223 79.0576V95.1201C14.3223 99.3788 16.014 103.463 19.0253 106.474C22.0367 109.486 26.1209 111.177 30.3796 111.177H46.4421M46.4421 14.8232H30.3796C26.1209 14.8232 22.0367 16.515 19.0253 19.5263C16.014 22.5376 14.3223 26.6219 14.3223 30.8805V46.943M49.1296 30.8805H35.0671C33.8239 30.8805 32.6316 31.3744 31.7525 32.2535C30.8734 33.1325 30.3796 34.3248 30.3796 35.568V49.6305C30.3796 50.8737 30.8734 52.066 31.7525 52.9451C32.6316 53.8242 33.8239 54.318 35.0671 54.318H49.1296C50.3728 54.318 51.565 53.8242 52.4441 52.9451C53.3232 52.066 53.8171 50.8737 53.8171 49.6305V35.568C53.8171 34.3248 53.3232 33.1325 52.4441 32.2535C51.565 31.3744 50.3728 30.8805 49.1296 30.8805ZM49.1296 71.5837H35.0671C33.8239 71.5837 32.6316 72.0775 31.7525 72.9566C30.8734 73.8357 30.3796 75.028 30.3796 76.2712V90.3337C30.3796 91.5769 30.8734 92.7691 31.7525 93.6482C32.6316 94.5273 33.8239 95.0212 35.0671 95.0212H49.1296C50.3728 95.0212 51.565 94.5273 52.4441 93.6482C53.3232 92.7691 53.8171 91.5769 53.8171 90.3337V76.2712C53.8171 75.028 53.3232 73.8357 52.4441 72.9566C51.565 72.0775 50.3728 71.5837 49.1296 71.5837ZM89.9316 30.8805H75.8691C74.6259 30.8805 73.4337 31.3744 72.5546 32.2535C71.6755 33.1325 71.1816 34.3248 71.1816 35.568V49.6305C71.1816 50.8737 71.6755 52.066 72.5546 52.9451C73.4337 53.8242 74.6259 54.318 75.8691 54.318H89.9316C91.1748 54.318 92.3671 53.8242 93.2462 52.9451C94.1253 52.066 94.6191 50.8737 94.6191 49.6305V35.568C94.6191 34.3248 94.1253 33.1325 93.2462 32.2535C92.3671 31.3744 91.1748 30.8805 89.9316 30.8805ZM89.9316 71.6826H75.8691C74.6259 71.6826 73.4337 72.1765 72.5546 73.0556C71.6755 73.9346 71.1816 75.1269 71.1816 76.3701V90.4326C71.1816 91.6758 71.6755 92.8681 72.5546 93.7472C73.4337 94.6263 74.6259 95.1201 75.8691 95.1201H89.9316C91.1748 95.1201 92.3671 94.6263 93.2462 93.7472C94.1253 92.8681 94.6191 91.6758 94.6191 90.4326V76.3701C94.6191 75.1269 94.1253 73.9346 93.2462 73.0556C92.3671 72.1765 91.1748 71.6826 89.9316 71.6826Z" stroke="white" stroke-width="7.8125" stroke-linecap="round" stroke-linejoin="round"/>
</svg>
